<svg width="280" height="315" viewBox="0 0 280 315" fill="none" xmlns="http://www.w3.org/2000/svg">
<path d="M76.6969 265.694H107.081C108.121 265.694 109.117 266.107 109.852 266.842C110.587 267.576 111 268.573 111 269.612V303.362C111 304.717 110.733 306.058 110.215 307.309C109.697 308.56 108.937 309.697 107.98 310.655C107.022 311.612 105.885 312.372 104.634 312.89C103.383 313.408 102.042 313.675 100.687 313.675H83.1187C80.3837 313.675 77.7607 312.589 75.8267 310.655C73.8927 308.721 72.8062 306.098 72.8062 303.362V269.612C72.8062 268.578 73.2152 267.586 73.9441 266.851C74.6729 266.117 75.6624 265.701 76.6969 265.694Z" stroke="#0249FF" stroke-width="1.875" stroke-linecap="round" stroke-linejoin="round"/>
<path d="M112.509 260.997H71.2781C70.02 260.997 69 262.017 69 263.275V263.416C69 264.674 70.02 265.694 71.2781 265.694H112.509C113.768 265.694 114.787 264.674 114.787 263.416V263.275C114.787 262.017 113.768 260.997 112.509 260.997Z" stroke="#0249FF" stroke-width="1.875" stroke-linecap="round" stroke-linejoin="round"/>
<path d="M82.3781 260.997C82.3769 260.341 82.505 259.692 82.7551 259.085C83.0052 258.479 83.3724 257.928 83.8356 257.464C84.2989 257 84.8491 256.632 85.4548 256.381C86.0605 256.129 86.7099 256 87.3656 256H96.5625C97.8877 256 99.1587 256.526 100.096 257.464C101.033 258.401 101.559 259.672 101.559 260.997" stroke="#0249FF" stroke-width="1.875" stroke-linecap="round" stroke-linejoin="round"/>
<path d="M93.2437 270.588H90.5437V307.038H93.2437V270.588Z" stroke="#0249FF" stroke-width="1.875" stroke-linecap="round" stroke-linejoin="round"/>
<path d="M79.7719 270.588H77.0719V307.038H79.7719V270.588Z" stroke="#0249FF" stroke-width="1.875" stroke-linecap="round" stroke-linejoin="round"/>
<path d="M106.491 270.588H103.791V307.038H106.491V270.588Z" stroke="#0249FF" stroke-width="1.875" stroke-linecap="round" stroke-linejoin="round"/>
<path d="M167.537 266.192C167.537 265.699 167.937 265.304 168.426 265.304C168.919 265.304 169.314 265.704 169.314 266.192V282.467C169.314 282.96 168.914 283.355 168.426 283.355H157.889C157.4 283.36 157 282.96 157 282.472V255.914C157 255.392 157.215 254.913 157.562 254.562L157.566 254.557C157.918 254.215 158.392 254 158.919 254H167.4C167.923 254 168.406 254.215 168.753 254.566C169.1 254.913 169.314 255.392 169.314 255.919V258.175C169.314 258.668 168.914 259.063 168.426 259.063C167.933 259.063 167.537 258.663 167.537 258.175V255.914C167.537 255.88 167.522 255.846 167.498 255.816C167.474 255.792 167.439 255.777 167.4 255.777H158.919C158.88 255.777 158.846 255.792 158.821 255.816L158.816 255.821C158.792 255.846 158.777 255.88 158.777 255.919V281.583H167.537V266.192ZM167.532 302.77L157.103 282.882C156.878 282.447 157.044 281.915 157.479 281.686C157.61 281.617 157.752 281.583 157.889 281.583V281.578H204.046C204.539 281.578 204.935 281.979 204.935 282.467C204.935 282.501 204.935 282.535 204.93 282.569C204.681 293.185 199.476 296.173 195.096 298.683C192.537 300.152 190.296 301.437 189.876 304.156L189.871 304.181C189.71 305.245 189.798 306.466 190.135 307.848C190.486 309.288 191.106 310.909 192.01 312.711C192.229 313.15 192.049 313.683 191.609 313.902C191.482 313.966 191.346 313.995 191.214 313.995H163.353C162.859 313.995 162.464 313.595 162.464 313.106C162.464 312.936 162.513 312.774 162.601 312.638L167.532 302.77ZM159.358 283.36L169.314 302.35C169.441 302.594 169.451 302.892 169.319 303.155L164.788 312.223H189.808C189.173 310.812 188.709 309.493 188.411 308.272C188.016 306.651 187.918 305.201 188.113 303.922L188.118 303.893C188.67 300.328 191.258 298.844 194.212 297.149C198.079 294.933 202.654 292.306 203.128 283.365H159.358V283.36ZM168.528 303.648C168.035 303.648 167.64 303.248 167.64 302.76C167.64 302.267 168.04 301.871 168.528 301.871H178.24C178.733 301.871 179.129 302.271 179.129 302.76C179.129 303.253 178.729 303.648 178.24 303.648H168.528ZM169.31 282.604C169.236 283.087 168.782 283.424 168.299 283.351C167.815 283.277 167.479 282.823 167.552 282.34C167.693 281.422 167.923 280.592 168.245 279.864C168.582 279.107 169.017 278.468 169.549 277.945C171.277 276.256 173.475 276.295 175.574 276.334C175.76 276.339 175.94 276.339 176.414 276.339H195.438C199.949 276.31 204.949 276.275 204.925 282.687C204.925 283.175 204.529 283.57 204.041 283.57C203.553 283.57 203.157 283.175 203.157 282.687C203.177 278.058 199.114 278.087 195.452 278.111C194.9 278.116 194.915 278.121 194.588 278.121H176.419L175.55 278.106C173.812 278.077 171.99 278.043 170.789 279.22C170.413 279.586 170.11 280.04 169.866 280.582C169.612 281.148 169.427 281.822 169.31 282.604ZM164.485 259.454C165.867 259.454 166.985 260.572 166.985 261.954C166.985 263.336 165.867 264.454 164.485 264.454C163.104 264.454 161.985 263.336 161.985 261.954C161.985 260.572 163.108 259.454 164.485 259.454ZM166.985 262.843C166.492 262.843 166.097 262.442 166.097 261.954C166.097 261.461 166.497 261.065 166.985 261.065H172.981C173.475 261.065 173.87 261.466 173.87 261.954C173.87 262.447 173.47 262.843 172.981 262.843H166.985Z" fill="#0249FF"/>
<path d="M40.3657 258.924C38.1979 258.967 36.3501 258.338 34.7774 257.19C33.3298 256.133 32.3127 254.84 31.6528 253.382C31.178 252.332 31.1368 251.25 31.4538 250.157C32.038 248.142 33.2804 246.436 35.243 245.065C35.9476 244.572 36.7571 244.219 37.6481 243.986C38.2834 243.819 38.9117 243.815 39.5653 243.972C40.3542 244.163 41.1752 244.271 41.9642 244.461C43.929 244.936 45.7292 245.667 47.2795 246.744C48.8573 247.841 49.9364 249.164 50.1594 250.859C50.3142 252.038 50.0017 253.162 49.3779 254.211C47.7892 256.887 45.1095 258.45 41.4178 258.918C41.0755 258.961 40.7166 258.924 40.3657 258.924ZM41.4963 256.975C44.0373 257.025 45.9276 255.999 47.1528 254.122C47.6172 253.411 47.9251 252.656 48.0346 251.862C48.1097 251.316 48.2267 250.742 48.0977 250.214C47.5828 248.111 45.9282 246.721 43.4342 245.985C42.3632 245.668 41.2102 245.525 40.0934 245.306C39.9999 245.288 39.8629 245.262 39.805 245.298C39.2764 245.628 38.6113 245.562 38.0173 245.697C36.7394 245.988 35.7337 246.592 34.911 247.394C33.8538 248.425 33.1348 249.597 32.6842 250.871C32.2479 252.104 32.5678 253.214 33.566 254.224C34.5664 255.236 35.8123 255.964 37.3339 256.41C38.617 256.787 39.9403 256.969 41.4969 256.975H41.4963Z" fill="#0249FF"/>
<path d="M51.6409 256.176C51.6466 254.903 52.8082 253.69 54.2627 253.468C54.523 253.428 54.8177 253.428 55.0711 253.483C55.954 253.672 56.7372 254.009 57.326 254.579C57.4831 254.731 57.6339 254.897 57.7314 255.076C58.4956 256.475 57.4252 258.343 55.5877 258.823C54.4806 259.112 53.5042 258.899 52.6872 258.269C51.9516 257.702 51.6317 256.985 51.6403 256.176H51.6409ZM56.4689 256.012C56.4769 255.566 56.059 255.231 55.5464 255.218C55.3257 255.213 55.1067 255.177 54.8871 255.155C54.3023 255.097 53.5592 255.504 53.3311 256.008C53.1636 256.379 53.4279 256.878 53.9331 257.122C54.4708 257.382 55.0172 257.391 55.5682 257.14C56.1381 256.88 56.4018 256.475 56.4689 256.012Z" fill="#0249FF"/>
<path d="M53.5822 243.835C52.0003 243.821 50.8141 243.197 50.4214 242.124C50.1152 241.288 50.2362 240.476 50.8439 239.735C51.4024 239.055 52.1551 238.842 53.1654 238.975C54.5855 239.162 55.4753 239.913 56.1117 240.812C57.1277 242.246 55.7253 243.94 53.5816 243.835H53.5822ZM53.8671 242.212C53.9331 242.2 54.1859 242.181 54.4141 242.112C54.9507 241.949 55.0608 241.693 54.7271 241.334C54.5224 241.113 54.2581 240.923 53.995 240.742C53.5575 240.441 52.4756 240.529 52.1064 240.879C51.81 241.161 51.8261 241.506 52.1746 241.786C52.5869 242.117 53.1115 242.223 53.8671 242.212Z" fill="#0249FF"/>
<path d="M38.5769 248.444C38.3986 248.713 38.304 248.971 38.0976 249.148C37.0381 250.055 36.8454 250.836 37.487 251.957C37.6728 252.281 37.9285 252.579 38.1251 252.9C38.2885 253.165 38.4336 253.441 38.5488 253.721C38.6663 254.008 38.5414 254.273 38.3046 254.494C38.0534 254.73 37.6653 254.739 37.3763 254.534C37.3207 254.494 37.268 254.449 37.2296 254.399C36.2538 253.116 35.3496 251.816 35.5222 250.236C35.6042 249.483 35.9 248.803 36.537 248.231C36.6849 248.098 36.858 247.98 37.0358 247.871C37.3276 247.693 37.6888 247.554 37.9978 247.755C38.2449 247.915 38.3728 248.19 38.5763 248.444H38.5769Z" fill="#0249FF"/>
<path d="M21.3657 162.924C19.1979 162.967 17.3501 162.338 15.7774 161.19C14.3298 160.133 13.3127 158.84 12.6528 157.382C12.178 156.332 12.1368 155.25 12.4538 154.157C13.038 152.142 14.2804 150.436 16.243 149.065C16.9476 148.572 17.7571 148.219 18.6481 147.986C19.2834 147.819 19.9117 147.815 20.5653 147.972C21.3542 148.163 22.1752 148.271 22.9642 148.461C24.929 148.936 26.7292 149.667 28.2795 150.744C29.8573 151.841 30.9364 153.164 31.1594 154.859C31.3142 156.038 31.0017 157.162 30.3779 158.211C28.7892 160.887 26.1095 162.45 22.4178 162.918C22.0755 162.961 21.7166 162.924 21.3657 162.924ZM22.4963 160.975C25.0373 161.025 26.9276 159.999 28.1528 158.122C28.6172 157.411 28.9251 156.656 29.0346 155.862C29.1097 155.316 29.2267 154.742 29.0977 154.214C28.5828 152.111 26.9282 150.721 24.4342 149.985C23.3632 149.668 22.2102 149.525 21.0934 149.306C20.9999 149.288 20.8629 149.262 20.805 149.298C20.2764 149.628 19.6113 149.562 19.0173 149.697C17.7394 149.988 16.7337 150.592 15.911 151.394C14.8538 152.425 14.1348 153.597 13.6842 154.871C13.2479 156.104 13.5678 157.214 14.566 158.224C15.5664 159.236 16.8123 159.964 18.3339 160.41C19.617 160.787 20.9403 160.969 22.4969 160.975H22.4963Z" fill="#0249FF"/>
<path d="M32.6409 160.176C32.6466 158.903 33.8082 157.69 35.2627 157.468C35.523 157.428 35.8177 157.428 36.0711 157.483C36.954 157.672 37.7372 158.009 38.326 158.579C38.4831 158.731 38.6339 158.897 38.7314 159.076C39.4956 160.475 38.4252 162.343 36.5877 162.823C35.4806 163.112 34.5042 162.899 33.6872 162.269C32.9516 161.702 32.6317 160.985 32.6403 160.176H32.6409ZM37.4689 160.012C37.4769 159.566 37.059 159.231 36.5464 159.218C36.3257 159.213 36.1067 159.177 35.8871 159.155C35.3023 159.097 34.5592 159.504 34.3311 160.008C34.1636 160.379 34.4279 160.878 34.9331 161.122C35.4708 161.382 36.0172 161.391 36.5682 161.14C37.1381 160.88 37.4018 160.475 37.4689 160.012Z" fill="#0249FF"/>
<path d="M34.5822 147.835C33.0003 147.821 31.8141 147.197 31.4214 146.124C31.1152 145.288 31.2362 144.476 31.8439 143.735C32.4024 143.055 33.1551 142.842 34.1654 142.975C35.5855 143.162 36.4753 143.913 37.1117 144.812C38.1277 146.246 36.7253 147.94 34.5816 147.835H34.5822ZM34.8671 146.212C34.9331 146.2 35.1859 146.181 35.4141 146.112C35.9507 145.949 36.0608 145.693 35.7271 145.334C35.5224 145.113 35.2581 144.923 34.995 144.742C34.5575 144.441 33.4756 144.529 33.1064 144.879C32.81 145.161 32.8261 145.506 33.1746 145.786C33.5869 146.117 34.1115 146.223 34.8671 146.212Z" fill="#0249FF"/>
<path d="M19.5769 152.444C19.3986 152.713 19.304 152.971 19.0976 153.148C18.0381 154.055 17.8454 154.836 18.487 155.957C18.6728 156.281 18.9285 156.579 19.1251 156.9C19.2885 157.165 19.4336 157.441 19.5488 157.721C19.6663 158.008 19.5414 158.273 19.3046 158.494C19.0534 158.73 18.6653 158.739 18.3763 158.534C18.3207 158.494 18.268 158.449 18.2296 158.399C17.2538 157.116 16.3496 155.816 16.5222 154.236C16.6042 153.483 16.9 152.803 17.537 152.231C17.6849 152.098 17.858 151.98 18.0358 151.871C18.3276 151.693 18.6888 151.554 18.9978 151.755C19.2449 151.915 19.3728 152.19 19.5763 152.444H19.5769Z" fill="#0249FF"/>
<path d="M133.366 305.924C131.198 305.967 129.35 305.338 127.777 304.19C126.33 303.133 125.313 301.84 124.653 300.382C124.178 299.332 124.137 298.25 124.454 297.157C125.038 295.142 126.28 293.436 128.243 292.065C128.948 291.572 129.757 291.219 130.648 290.986C131.283 290.819 131.912 290.815 132.565 290.972C133.354 291.163 134.175 291.271 134.964 291.461C136.929 291.936 138.729 292.667 140.28 293.744C141.857 294.841 142.936 296.164 143.159 297.859C143.314 299.038 143.002 300.162 142.378 301.211C140.789 303.887 138.109 305.45 134.418 305.918C134.075 305.961 133.717 305.924 133.366 305.924ZM134.496 303.975C137.037 304.025 138.928 302.999 140.153 301.122C140.617 300.411 140.925 299.656 141.035 298.862C141.11 298.316 141.227 297.742 141.098 297.214C140.583 295.111 138.928 293.721 136.434 292.985C135.363 292.668 134.21 292.525 133.093 292.306C133 292.288 132.863 292.262 132.805 292.298C132.276 292.628 131.611 292.562 131.017 292.697C129.739 292.988 128.734 293.592 127.911 294.394C126.854 295.425 126.135 296.597 125.684 297.871C125.248 299.104 125.568 300.214 126.566 301.224C127.566 302.236 128.812 302.964 130.334 303.41C131.617 303.787 132.94 303.969 134.497 303.975H134.496Z" fill="#0249FF"/>
<path d="M144.641 303.176C144.647 301.903 145.808 300.69 147.263 300.468C147.523 300.428 147.818 300.428 148.071 300.483C148.954 300.672 149.737 301.009 150.326 301.579C150.483 301.731 150.634 301.897 150.731 302.076C151.496 303.475 150.425 305.343 148.588 305.823C147.481 306.112 146.504 305.899 145.687 305.269C144.952 304.702 144.632 303.985 144.64 303.176H144.641ZM149.469 303.012C149.477 302.566 149.059 302.231 148.546 302.218C148.326 302.213 148.107 302.177 147.887 302.155C147.302 302.097 146.559 302.504 146.331 303.008C146.164 303.379 146.428 303.878 146.933 304.122C147.471 304.382 148.017 304.391 148.568 304.14C149.138 303.88 149.402 303.475 149.469 303.012Z" fill="#0249FF"/>
<path d="M146.582 290.835C145 290.821 143.814 290.197 143.421 289.124C143.115 288.288 143.236 287.476 143.844 286.735C144.402 286.055 145.155 285.842 146.165 285.975C147.586 286.162 148.475 286.913 149.112 287.812C150.128 289.246 148.725 290.94 146.582 290.835H146.582ZM146.867 289.212C146.933 289.2 147.186 289.181 147.414 289.112C147.951 288.949 148.061 288.693 147.727 288.334C147.522 288.113 147.258 287.923 146.995 287.742C146.558 287.441 145.476 287.529 145.106 287.879C144.81 288.161 144.826 288.506 145.175 288.786C145.587 289.117 146.111 289.223 146.867 289.212Z" fill="#0249FF"/>
<path d="M131.577 295.444C131.399 295.713 131.304 295.971 131.098 296.148C130.038 297.055 129.845 297.836 130.487 298.957C130.673 299.281 130.928 299.579 131.125 299.9C131.289 300.165 131.434 300.441 131.549 300.721C131.666 301.008 131.541 301.273 131.305 301.494C131.053 301.73 130.665 301.739 130.376 301.534C130.321 301.494 130.268 301.449 130.23 301.399C129.254 300.116 128.35 298.816 128.522 297.236C128.604 296.483 128.9 295.803 129.537 295.231C129.685 295.098 129.858 294.98 130.036 294.871C130.328 294.693 130.689 294.554 130.998 294.755C131.245 294.915 131.373 295.19 131.576 295.444H131.577Z" fill="#0249FF"/>
<path d="M224.366 267.924C222.198 267.967 220.35 267.338 218.777 266.19C217.33 265.133 216.313 263.84 215.653 262.382C215.178 261.332 215.137 260.25 215.454 259.157C216.038 257.142 217.28 255.436 219.243 254.065C219.948 253.572 220.757 253.219 221.648 252.986C222.283 252.819 222.912 252.815 223.565 252.972C224.354 253.163 225.175 253.271 225.964 253.461C227.929 253.936 229.729 254.667 231.28 255.744C232.857 256.841 233.936 258.164 234.159 259.859C234.314 261.038 234.002 262.162 233.378 263.211C231.789 265.887 229.109 267.45 225.418 267.918C225.075 267.961 224.717 267.924 224.366 267.924ZM225.496 265.975C228.037 266.025 229.928 264.999 231.153 263.122C231.617 262.411 231.925 261.656 232.035 260.862C232.11 260.316 232.227 259.742 232.098 259.214C231.583 257.111 229.928 255.721 227.434 254.985C226.363 254.668 225.21 254.525 224.093 254.306C224 254.288 223.863 254.262 223.805 254.298C223.276 254.628 222.611 254.562 222.017 254.697C220.739 254.988 219.734 255.592 218.911 256.394C217.854 257.425 217.135 258.597 216.684 259.871C216.248 261.104 216.568 262.214 217.566 263.224C218.566 264.236 219.812 264.964 221.334 265.41C222.617 265.787 223.94 265.969 225.497 265.975H225.496Z" fill="#0249FF"/>
<path d="M235.641 265.176C235.647 263.903 236.808 262.69 238.263 262.468C238.523 262.428 238.818 262.428 239.071 262.483C239.954 262.672 240.737 263.009 241.326 263.579C241.483 263.731 241.634 263.897 241.731 264.076C242.496 265.475 241.425 267.343 239.588 267.823C238.481 268.112 237.504 267.899 236.687 267.269C235.952 266.702 235.632 265.985 235.64 265.176H235.641ZM240.469 265.012C240.477 264.566 240.059 264.231 239.546 264.218C239.326 264.213 239.107 264.177 238.887 264.155C238.302 264.097 237.559 264.504 237.331 265.008C237.164 265.379 237.428 265.878 237.933 266.122C238.471 266.382 239.017 266.391 239.568 266.14C240.138 265.88 240.402 265.475 240.469 265.012Z" fill="#0249FF"/>
<path d="M237.582 252.835C236 252.821 234.814 252.197 234.421 251.124C234.115 250.288 234.236 249.476 234.844 248.735C235.402 248.055 236.155 247.842 237.165 247.975C238.586 248.162 239.475 248.913 240.112 249.812C241.128 251.246 239.725 252.94 237.582 252.835H237.582ZM237.867 251.212C237.933 251.2 238.186 251.181 238.414 251.112C238.951 250.949 239.061 250.693 238.727 250.334C238.522 250.113 238.258 249.923 237.995 249.742C237.558 249.441 236.476 249.529 236.106 249.879C235.81 250.161 235.826 250.506 236.175 250.786C236.587 251.117 237.111 251.223 237.867 251.212Z" fill="#0249FF"/>
<path d="M222.577 257.444C222.399 257.713 222.304 257.971 222.098 258.148C221.038 259.055 220.845 259.836 221.487 260.957C221.673 261.281 221.928 261.579 222.125 261.9C222.289 262.165 222.434 262.441 222.549 262.721C222.666 263.008 222.541 263.273 222.305 263.494C222.053 263.73 221.665 263.739 221.376 263.534C221.321 263.494 221.268 263.449 221.23 263.399C220.254 262.116 219.35 260.816 219.522 259.236C219.604 258.483 219.9 257.803 220.537 257.231C220.685 257.098 220.858 256.98 221.036 256.871C221.328 256.693 221.689 256.554 221.998 256.755C222.245 256.915 222.373 257.19 222.576 257.444H222.577Z" fill="#0249FF"/>
<path d="M242.366 162.924C240.198 162.967 238.35 162.338 236.777 161.19C235.33 160.133 234.313 158.84 233.653 157.382C233.178 156.332 233.137 155.25 233.454 154.157C234.038 152.142 235.28 150.436 237.243 149.065C237.948 148.572 238.757 148.219 239.648 147.986C240.283 147.819 240.912 147.815 241.565 147.972C242.354 148.163 243.175 148.271 243.964 148.461C245.929 148.936 247.729 149.667 249.28 150.744C250.857 151.841 251.936 153.164 252.159 154.859C252.314 156.038 252.002 157.162 251.378 158.211C249.789 160.887 247.109 162.45 243.418 162.918C243.075 162.961 242.717 162.924 242.366 162.924ZM243.496 160.975C246.037 161.025 247.928 159.999 249.153 158.122C249.617 157.411 249.925 156.656 250.035 155.862C250.11 155.316 250.227 154.742 250.098 154.214C249.583 152.111 247.928 150.721 245.434 149.985C244.363 149.668 243.21 149.525 242.093 149.306C242 149.288 241.863 149.262 241.805 149.298C241.276 149.628 240.611 149.562 240.017 149.697C238.739 149.988 237.734 150.592 236.911 151.394C235.854 152.425 235.135 153.597 234.684 154.871C234.248 156.104 234.568 157.214 235.566 158.224C236.566 159.236 237.812 159.964 239.334 160.41C240.617 160.787 241.94 160.969 243.497 160.975H243.496Z" fill="#0249FF"/>
<path d="M253.641 160.176C253.647 158.903 254.808 157.69 256.263 157.468C256.523 157.428 256.818 157.428 257.071 157.483C257.954 157.672 258.737 158.009 259.326 158.579C259.483 158.731 259.634 158.897 259.731 159.076C260.496 160.475 259.425 162.343 257.588 162.823C256.481 163.112 255.504 162.899 254.687 162.269C253.952 161.702 253.632 160.985 253.64 160.176H253.641ZM258.469 160.012C258.477 159.566 258.059 159.231 257.546 159.218C257.326 159.213 257.107 159.177 256.887 159.155C256.302 159.097 255.559 159.504 255.331 160.008C255.164 160.379 255.428 160.878 255.933 161.122C256.471 161.382 257.017 161.391 257.568 161.14C258.138 160.88 258.402 160.475 258.469 160.012Z" fill="#0249FF"/>
<path d="M255.582 147.835C254 147.821 252.814 147.197 252.421 146.124C252.115 145.288 252.236 144.476 252.844 143.735C253.402 143.055 254.155 142.842 255.165 142.975C256.586 143.162 257.475 143.913 258.112 144.812C259.128 146.246 257.725 147.94 255.582 147.835H255.582ZM255.867 146.212C255.933 146.2 256.186 146.181 256.414 146.112C256.951 145.949 257.061 145.693 256.727 145.334C256.522 145.113 256.258 144.923 255.995 144.742C255.558 144.441 254.476 144.529 254.106 144.879C253.81 145.161 253.826 145.506 254.175 145.786C254.587 146.117 255.111 146.223 255.867 146.212Z" fill="#0249FF"/>
<path d="M240.577 152.444C240.399 152.713 240.304 152.971 240.098 153.148C239.038 154.055 238.845 154.836 239.487 155.957C239.673 156.281 239.928 156.579 240.125 156.9C240.289 157.165 240.434 157.441 240.549 157.721C240.666 158.008 240.541 158.273 240.305 158.494C240.053 158.73 239.665 158.739 239.376 158.534C239.321 158.494 239.268 158.449 239.23 158.399C238.254 157.116 237.35 155.816 237.522 154.236C237.604 153.483 237.9 152.803 238.537 152.231C238.685 152.098 238.858 151.98 239.036 151.871C239.328 151.693 239.689 151.554 239.998 151.755C240.245 151.915 240.373 152.19 240.576 152.444H240.577Z" fill="#0249FF"/>
<path d="M131.366 261.924C129.198 261.967 127.35 261.338 125.777 260.19C124.33 259.133 123.313 257.84 122.653 256.382C122.178 255.332 122.137 254.25 122.454 253.157C123.038 251.142 124.28 249.436 126.243 248.065C126.948 247.572 127.757 247.219 128.648 246.986C129.283 246.819 129.912 246.815 130.565 246.972C131.354 247.163 132.175 247.271 132.964 247.461C134.929 247.936 136.729 248.667 138.28 249.744C139.857 250.841 140.936 252.164 141.159 253.859C141.314 255.038 141.002 256.162 140.378 257.211C138.789 259.887 136.109 261.45 132.418 261.918C132.075 261.961 131.717 261.924 131.366 261.924ZM132.496 259.975C135.037 260.025 136.928 258.999 138.153 257.122C138.617 256.411 138.925 255.656 139.035 254.862C139.11 254.316 139.227 253.742 139.098 253.214C138.583 251.111 136.928 249.721 134.434 248.985C133.363 248.668 132.21 248.525 131.093 248.306C131 248.288 130.863 248.262 130.805 248.298C130.276 248.628 129.611 248.562 129.017 248.697C127.739 248.988 126.734 249.592 125.911 250.394C124.854 251.425 124.135 252.597 123.684 253.871C123.248 255.104 123.568 256.214 124.566 257.224C125.566 258.236 126.812 258.964 128.334 259.41C129.617 259.787 130.94 259.969 132.497 259.975H132.496Z" fill="#0249FF"/>
<path d="M142.641 259.176C142.647 257.903 143.808 256.69 145.263 256.468C145.523 256.428 145.818 256.428 146.071 256.483C146.954 256.672 147.737 257.009 148.326 257.579C148.483 257.731 148.634 257.897 148.731 258.076C149.496 259.475 148.425 261.343 146.588 261.823C145.481 262.112 144.504 261.899 143.687 261.269C142.952 260.702 142.632 259.985 142.64 259.176H142.641ZM147.469 259.012C147.477 258.566 147.059 258.231 146.546 258.218C146.326 258.213 146.107 258.177 145.887 258.155C145.302 258.097 144.559 258.504 144.331 259.008C144.164 259.379 144.428 259.878 144.933 260.122C145.471 260.382 146.017 260.391 146.568 260.14C147.138 259.88 147.402 259.475 147.469 259.012Z" fill="#0249FF"/>
<path d="M144.582 246.835C143 246.821 141.814 246.197 141.421 245.124C141.115 244.288 141.236 243.476 141.844 242.735C142.402 242.055 143.155 241.842 144.165 241.975C145.586 242.162 146.475 242.913 147.112 243.812C148.128 245.246 146.725 246.94 144.582 246.835H144.582ZM144.867 245.212C144.933 245.2 145.186 245.181 145.414 245.112C145.951 244.949 146.061 244.693 145.727 244.334C145.522 244.113 145.258 243.923 144.995 243.742C144.558 243.441 143.476 243.529 143.106 243.879C142.81 244.161 142.826 244.506 143.175 244.786C143.587 245.117 144.111 245.223 144.867 245.212Z" fill="#0249FF"/>
<path d="M129.577 251.444C129.399 251.713 129.304 251.971 129.098 252.148C128.038 253.055 127.845 253.836 128.487 254.957C128.673 255.281 128.928 255.579 129.125 255.9C129.289 256.165 129.434 256.441 129.549 256.721C129.666 257.008 129.541 257.273 129.305 257.494C129.053 257.73 128.665 257.739 128.376 257.534C128.321 257.494 128.268 257.449 128.23 257.399C127.254 256.116 126.35 254.816 126.522 253.236C126.604 252.483 126.9 251.803 127.537 251.231C127.685 251.098 127.858 250.98 128.036 250.871C128.328 250.693 128.689 250.554 128.998 250.755C129.245 250.915 129.373 251.19 129.576 251.444H129.577Z" fill="#0249FF"/>
<path d="M221.366 77.9239C219.198 77.9674 217.35 77.3377 215.777 76.1899C214.33 75.1331 213.313 73.8402 212.653 72.3819C212.178 71.3324 212.137 70.2498 212.454 69.1573C213.038 67.1422 214.28 65.4359 216.243 64.0646C216.948 63.5722 217.757 63.2191 218.648 62.9856C219.283 62.8192 219.912 62.8147 220.565 62.9725C221.354 63.1633 222.175 63.2708 222.964 63.4612C224.929 63.9358 226.729 64.6666 228.28 65.7442C229.857 66.8412 230.936 68.1636 231.159 69.8591C231.314 71.0382 231.002 72.1615 230.378 73.2115C228.789 75.8866 226.109 77.4497 222.418 77.918C222.075 77.9615 221.717 77.9239 221.366 77.9239ZM222.496 75.975C225.037 76.0248 226.928 74.9985 228.153 73.1222C228.617 72.4113 228.925 71.6556 229.035 70.8623C229.11 70.3156 229.227 69.7416 229.098 69.2144C228.583 67.1105 226.928 65.7215 224.434 64.9848C223.363 64.6684 222.21 64.5247 221.093 64.3057C221 64.2876 220.863 64.2618 220.805 64.2985C220.276 64.628 219.611 64.5623 219.017 64.6974C217.739 64.9884 216.734 65.5918 215.911 66.3942C214.854 67.4247 214.135 68.597 213.684 69.8708C213.248 71.1044 213.568 72.2137 214.566 73.2237C215.566 74.236 216.812 74.9636 218.334 75.4101C219.617 75.7868 220.94 75.9686 222.497 75.975H222.496Z" fill="#0249FF"/>
<path d="M232.641 75.1762C232.647 73.9028 233.808 72.6901 235.263 72.4675C235.523 72.4276 235.818 72.4281 236.071 72.4825C236.954 72.6715 237.737 73.0088 238.326 73.5791C238.483 73.731 238.634 73.8969 238.731 74.0755C239.496 75.475 238.425 77.3427 236.588 77.8232C235.481 78.1124 234.504 77.8989 233.687 77.2692C232.952 76.7021 232.632 75.9854 232.64 75.1762H232.641ZM237.469 75.0121C237.477 74.5656 237.059 74.231 236.546 74.2183C236.326 74.2129 236.107 74.1766 235.887 74.1548C235.302 74.0968 234.559 74.5044 234.331 75.0085C234.164 75.3788 234.428 75.8775 234.933 76.1219C235.471 76.3816 236.017 76.3907 236.568 76.1395C237.138 75.8798 237.402 75.475 237.469 75.0121Z" fill="#0249FF"/>
<path d="M234.582 62.8347C233 62.8206 231.814 62.1968 231.421 61.1242C231.115 60.2883 231.236 59.4759 231.844 58.7352C232.402 58.0547 233.155 57.8417 234.165 57.9749C235.586 58.1622 236.475 58.9133 237.112 59.8118C238.128 61.2457 236.725 62.9398 234.582 62.8347H234.582ZM234.867 61.2117C234.933 61.2004 235.186 61.1809 235.414 61.1115C235.951 60.9488 236.061 60.6931 235.727 60.3336C235.522 60.1133 235.258 59.9229 234.995 59.742C234.558 59.441 233.476 59.5285 233.106 59.8794C232.81 60.1614 232.826 60.5063 233.175 60.7861C233.587 61.117 234.111 61.2231 234.867 61.2117Z" fill="#0249FF"/>
<path d="M219.577 67.4437C219.399 67.7125 219.304 67.9714 219.098 68.1482C218.038 69.0549 217.845 69.8364 218.487 70.9566C218.673 71.2807 218.928 71.579 219.125 71.8995C219.289 72.1652 219.434 72.4408 219.549 72.7214C219.666 73.0079 219.541 73.2727 219.305 73.4944C219.053 73.7296 218.665 73.7392 218.376 73.5338C218.321 73.4944 218.268 73.449 218.23 73.3992C217.254 72.1158 216.35 70.8161 216.522 69.2357C216.604 68.4828 216.9 67.8032 217.537 67.2311C217.685 67.0983 217.858 66.98 218.036 66.8712C218.328 66.693 218.689 66.5543 218.998 66.7546C219.245 66.9147 219.373 67.1903 219.576 67.4437H219.577Z" fill="#0249FF"/>
<path d="M160.366 25.9239C158.198 25.9674 156.35 25.3377 154.777 24.1899C153.33 23.1331 152.313 21.8402 151.653 20.3819C151.178 19.3324 151.137 18.2498 151.454 17.1573C152.038 15.1422 153.28 13.4359 155.243 12.0646C155.948 11.5722 156.757 11.2191 157.648 10.9856C158.283 10.8192 158.912 10.8147 159.565 10.9725C160.354 11.1633 161.175 11.2708 161.964 11.4612C163.929 11.9358 165.729 12.6666 167.28 13.7442C168.857 14.8412 169.936 16.1636 170.159 17.8591C170.314 19.0382 170.002 20.1615 169.378 21.2115C167.789 23.8866 165.109 25.4497 161.418 25.918C161.075 25.9615 160.717 25.9239 160.366 25.9239ZM161.496 23.975C164.037 24.0248 165.928 22.9985 167.153 21.1222C167.617 20.4113 167.925 19.6556 168.035 18.8623C168.11 18.3156 168.227 17.7416 168.098 17.2144C167.583 15.1105 165.928 13.7215 163.434 12.9848C162.363 12.6684 161.21 12.5247 160.093 12.3057C160 12.2876 159.863 12.2618 159.805 12.2985C159.276 12.628 158.611 12.5623 158.017 12.6974C156.739 12.9884 155.734 13.5918 154.911 14.3942C153.854 15.4247 153.135 16.597 152.684 17.8708C152.248 19.1044 152.568 20.2137 153.566 21.2237C154.566 22.236 155.812 22.9636 157.334 23.4101C158.617 23.7868 159.94 23.9686 161.497 23.975H161.496Z" fill="#0249FF"/>
<path d="M171.641 23.1762C171.647 21.9028 172.808 20.6901 174.263 20.4675C174.523 20.4276 174.818 20.4281 175.071 20.4825C175.954 20.6715 176.737 21.0088 177.326 21.5791C177.483 21.731 177.634 21.8969 177.731 22.0755C178.496 23.475 177.425 25.3427 175.588 25.8232C174.481 26.1124 173.504 25.8989 172.687 25.2692C171.952 24.7021 171.632 23.9854 171.64 23.1762H171.641ZM176.469 23.0121C176.477 22.5656 176.059 22.231 175.546 22.2183C175.326 22.2129 175.107 22.1766 174.887 22.1548C174.302 22.0968 173.559 22.5044 173.331 23.0085C173.164 23.3788 173.428 23.8775 173.933 24.1219C174.471 24.3816 175.017 24.3907 175.568 24.1395C176.138 23.8798 176.402 23.475 176.469 23.0121Z" fill="#0249FF"/>
<path d="M173.582 10.8347C172 10.8206 170.814 10.1968 170.421 9.12424C170.115 8.28829 170.236 7.47592 170.844 6.73517C171.402 6.05472 172.155 5.84165 173.165 5.97493C174.586 6.16216 175.475 6.91333 176.112 7.81184C177.128 9.24573 175.725 10.9398 173.582 10.8347H173.582ZM173.867 9.21173C173.933 9.2004 174.186 9.1809 174.414 9.11154C174.951 8.9488 175.061 8.69312 174.727 8.33362C174.522 8.1133 174.258 7.9229 173.995 7.74202C173.558 7.44101 172.476 7.5285 172.106 7.87938C171.81 8.16136 171.826 8.50634 172.175 8.78605C172.587 9.11698 173.111 9.22306 173.867 9.21173Z" fill="#0249FF"/>
<path d="M158.577 15.4437C158.399 15.7125 158.304 15.9714 158.098 16.1482C157.038 17.0549 156.845 17.8364 157.487 18.9566C157.673 19.2807 157.928 19.579 158.125 19.8995C158.289 20.1652 158.434 20.4408 158.549 20.7214C158.666 21.0079 158.541 21.2727 158.305 21.4944C158.053 21.7296 157.665 21.7392 157.376 21.5338C157.321 21.4944 157.268 21.449 157.23 21.3992C156.254 20.1158 155.35 18.8161 155.522 17.2357C155.604 16.4828 155.9 15.8032 156.537 15.2311C156.685 15.0983 156.858 14.98 157.036 14.8712C157.328 14.693 157.689 14.5543 157.998 14.7546C158.245 14.9147 158.373 15.1903 158.576 15.4437H158.577Z" fill="#0249FF"/>
<path d="M102.366 25.9239C100.198 25.9674 98.3501 25.3377 96.7774 24.1899C95.3298 23.1331 94.3127 21.8402 93.6528 20.3819C93.178 19.3324 93.1368 18.2498 93.4538 17.1573C94.038 15.1422 95.2804 13.4359 97.243 12.0646C97.9476 11.5722 98.7571 11.2191 99.6481 10.9856C100.283 10.8192 100.912 10.8147 101.565 10.9725C102.354 11.1633 103.175 11.2708 103.964 11.4612C105.929 11.9358 107.729 12.6666 109.28 13.7442C110.857 14.8412 111.936 16.1636 112.159 17.8591C112.314 19.0382 112.002 20.1615 111.378 21.2115C109.789 23.8866 107.109 25.4497 103.418 25.918C103.075 25.9615 102.717 25.9239 102.366 25.9239ZM103.496 23.975C106.037 24.0248 107.928 22.9985 109.153 21.1222C109.617 20.4113 109.925 19.6556 110.035 18.8623C110.11 18.3156 110.227 17.7416 110.098 17.2144C109.583 15.1105 107.928 13.7215 105.434 12.9848C104.363 12.6684 103.21 12.5247 102.093 12.3057C102 12.2876 101.863 12.2618 101.805 12.2985C101.276 12.628 100.611 12.5623 100.017 12.6974C98.7394 12.9884 97.7337 13.5918 96.911 14.3942C95.8538 15.4247 95.1348 16.597 94.6842 17.8708C94.2479 19.1044 94.5678 20.2137 95.566 21.2237C96.5664 22.236 97.8123 22.9636 99.3339 23.4101C100.617 23.7868 101.94 23.9686 103.497 23.975H103.496Z" fill="#0249FF"/>
<path d="M113.641 23.1762C113.647 21.9028 114.808 20.6901 116.263 20.4675C116.523 20.4276 116.818 20.4281 117.071 20.4825C117.954 20.6715 118.737 21.0088 119.326 21.5791C119.483 21.731 119.634 21.8969 119.731 22.0755C120.496 23.475 119.425 25.3427 117.588 25.8232C116.481 26.1124 115.504 25.8989 114.687 25.2692C113.952 24.7021 113.632 23.9854 113.64 23.1762H113.641ZM118.469 23.0121C118.477 22.5656 118.059 22.231 117.546 22.2183C117.326 22.2129 117.107 22.1766 116.887 22.1548C116.302 22.0968 115.559 22.5044 115.331 23.0085C115.164 23.3788 115.428 23.8775 115.933 24.1219C116.471 24.3816 117.017 24.3907 117.568 24.1395C118.138 23.8798 118.402 23.475 118.469 23.0121Z" fill="#0249FF"/>
<path d="M115.582 10.8347C114 10.8206 112.814 10.1968 112.421 9.12424C112.115 8.28829 112.236 7.47592 112.844 6.73517C113.402 6.05472 114.155 5.84165 115.165 5.97493C116.586 6.16216 117.475 6.91333 118.112 7.81184C119.128 9.24573 117.725 10.9398 115.582 10.8347H115.582ZM115.867 9.21173C115.933 9.2004 116.186 9.1809 116.414 9.11154C116.951 8.9488 117.061 8.69312 116.727 8.33362C116.522 8.1133 116.258 7.9229 115.995 7.74202C115.558 7.44101 114.476 7.5285 114.106 7.87938C113.81 8.16136 113.826 8.50634 114.175 8.78605C114.587 9.11698 115.111 9.22306 115.867 9.21173Z" fill="#0249FF"/>
<path d="M100.577 15.4437C100.399 15.7125 100.304 15.9714 100.098 16.1482C99.0381 17.0549 98.8454 17.8364 99.487 18.9566C99.6728 19.2807 99.9285 19.579 100.125 19.8995C100.289 20.1652 100.434 20.4408 100.549 20.7214C100.666 21.0079 100.541 21.2727 100.305 21.4944C100.053 21.7296 99.6653 21.7392 99.3763 21.5338C99.3207 21.4944 99.268 21.449 99.2296 21.3992C98.2538 20.1158 97.3496 18.8161 97.5222 17.2357C97.6042 16.4828 97.9 15.8032 98.537 15.2311C98.6849 15.0983 98.858 14.98 99.0358 14.8712C99.3276 14.693 99.6888 14.5543 99.9978 14.7546C100.245 14.9147 100.373 15.1903 100.576 15.4437H100.577Z" fill="#0249FF"/>
<path d="M272.192 91.4567C271.34 90.9792 270.324 90.8825 269.405 91.1915C268.484 91.5007 267.734 92.1879 267.345 93.0771L265.366 97.5993C265.247 97.8733 264.976 98.0502 264.677 98.0502C264.262 98.0502 263.925 97.7127 263.925 97.2977V80.5941C263.925 78.7658 262.566 77.1977 260.832 77.024C260.165 76.9576 259.498 77.0864 258.913 77.3845C258.88 75.5129 257.349 74 255.47 74C253.59 74 252.059 75.5131 252.026 77.3851C251.556 77.1436 251.023 77.0063 250.459 77.0063C248.56 77.0063 247.014 78.5517 247.014 80.4511V81.3928C246.544 81.1516 246.012 81.0147 245.449 81.0147C244.68 81.0147 243.97 81.2677 243.396 81.6948C242.794 80.6882 241.694 80.0127 240.438 80.0127C238.559 80.0127 237.027 81.5255 236.995 83.397C236.41 83.0989 235.744 82.9701 235.076 83.0367C233.341 83.2101 231.983 84.7784 231.983 86.6068V103.31C231.983 103.725 231.645 104.063 231.231 104.063C230.932 104.063 230.661 103.886 230.541 103.612L228.563 99.0898C228.174 98.2004 227.423 97.5132 226.503 97.2041C225.584 96.8952 224.567 96.9921 223.716 97.4693C222.193 98.3227 221.575 100.305 222.308 101.982C222.31 101.986 222.312 101.99 222.314 101.994L231.983 123.243V131.056C231.983 132.68 233.304 134 234.927 134H247.954C249.577 134 250.898 132.68 250.898 131.056V127.987H260.981C262.604 127.987 263.925 126.667 263.925 125.044V117.231L273.594 95.9817C273.596 95.9776 273.598 95.9735 273.6 95.969C274.333 94.2923 273.715 92.3103 272.192 91.4567ZM224.027 101.223C223.68 100.422 223.946 99.4943 224.634 99.1085C225.03 98.8866 225.481 98.8429 225.905 98.9853C226.323 99.1257 226.665 99.4381 226.842 99.8428L228.82 104.365C229.239 105.323 230.185 105.942 231.231 105.942C232.682 105.942 233.862 104.761 233.862 103.31V86.6067C233.862 85.7319 234.477 84.9849 235.263 84.9063C235.714 84.8605 236.146 85.0016 236.478 85.3021C236.806 85.5986 236.994 86.022 236.994 86.4636V99.9917C236.994 100.511 237.414 100.931 237.933 100.931C238.452 100.931 238.873 100.511 238.873 99.9917V83.4571C238.873 82.5937 239.575 81.8914 240.438 81.8914C241.302 81.8914 242.004 82.5937 242.004 83.4571V98.0329C242.004 100.074 242.255 102.113 242.75 104.094L244.32 110.374C244.778 112.206 245.01 114.092 245.01 115.98V122.1H233.527L224.027 101.223ZM245.21 126.109H233.862V123.979H245.01V125.044C245.01 125.419 245.082 125.778 245.21 126.109ZM249.019 131.056C249.019 131.643 248.541 132.121 247.954 132.121H234.927C234.34 132.121 233.862 131.643 233.862 131.056V127.987H249.019V131.056H249.019ZM262.046 125.044C262.046 125.631 261.568 126.109 260.981 126.109H247.954C247.367 126.109 246.889 125.631 246.889 125.044V121.975H262.046V125.044H262.046ZM262.046 120.096H246.889V117.967H262.046V120.096H262.046ZM271.881 95.2106L262.381 116.088H246.889V115.98C246.889 113.938 246.638 111.899 246.143 109.919L244.573 103.638C244.115 101.807 243.883 99.9208 243.883 98.0329V84.4593C243.883 83.5959 244.585 82.8936 245.449 82.8936C246.312 82.8936 247.014 83.5959 247.014 84.4593V95.9833C247.014 96.5022 247.435 96.9228 247.954 96.9228C248.473 96.9228 248.893 96.5023 248.893 95.9833V80.4509C248.893 79.5875 249.596 78.8852 250.459 78.8852C251.323 78.8852 252.025 79.5875 252.025 80.4509V93.9791C252.025 94.498 252.445 94.9186 252.964 94.9186C253.483 94.9186 253.904 94.4981 253.904 93.9791V77.4447C253.904 76.5813 254.606 75.879 255.47 75.879C256.333 75.879 257.035 76.5813 257.035 77.4447V93.9792C257.035 94.4981 257.456 94.9187 257.975 94.9187C258.494 94.9187 258.914 94.4982 258.914 93.9792V82.9562V80.4509C258.914 80.0094 259.102 79.586 259.43 79.2895C259.762 78.989 260.194 78.8476 260.645 78.8936C261.43 78.9721 262.046 79.7191 262.046 80.594V97.2977C262.046 98.7486 263.226 99.929 264.677 99.929C265.723 99.929 266.669 99.3103 267.088 98.3524L269.067 93.83C269.243 93.4257 269.585 93.1133 270.003 92.9729C270.427 92.8304 270.878 92.8742 271.274 93.0961C271.962 93.4817 272.228 94.4096 271.881 95.2106Z" fill="#0249FF"/>
<path d="M40.2 103.705C40.5315 103.705 40.8 103.437 40.8 103.105V98.3054C40.8 97.9739 40.5315 97.7054 40.2 97.7054H3C2.9212 97.7054 2.84317 97.7209 2.77037 97.751C2.69757 97.7812 2.63142 97.8254 2.5757 97.8811C2.51998 97.9368 2.47579 98.003 2.44564 98.0758C2.41549 98.1486 2.39998 98.2266 2.4 98.3054V103.105C2.4 103.437 2.66853 103.705 3 103.705H40.2ZM40.2 106.105H3C1.34309 106.105 0 104.762 0 103.105V98.3054C0 96.6485 1.34309 95.3054 3 95.3054H40.2C41.8569 95.3054 43.2 96.6485 43.2 98.3054V103.105C43.2 104.762 41.8569 106.105 40.2 106.105Z" fill="#0249FF"/>
<path d="M4.63038 96.4814C4.63038 87.0476 12.2781 79.4 21.7118 79.4C31.146 79.4 38.7938 87.0475 38.7938 96.4814C38.7938 97.1442 39.3311 97.6814 39.9938 97.6814C40.6566 97.6814 41.1938 97.1442 41.1938 96.4814C41.1938 85.722 32.4714 77 21.7118 77C10.9526 77 2.23038 85.722 2.23038 96.4814C2.23038 97.1442 2.76762 97.6814 3.43038 97.6814C4.09313 97.6814 4.63038 97.1442 4.63038 96.4814ZM38.7 104.995V134.035C38.7 134.367 38.4315 134.635 38.1 134.635H5.10001C5.02121 134.635 4.94318 134.62 4.87038 134.59C4.79758 134.56 4.73143 134.515 4.67571 134.46C4.61999 134.404 4.57579 134.338 4.54565 134.265C4.5155 134.192 4.49999 134.114 4.50001 134.035V105.535C4.50001 104.873 3.96276 104.335 3.30001 104.335C2.63725 104.335 2.10001 104.873 2.10001 105.535V134.035C2.10001 135.692 3.44309 137.035 5.10001 137.035H38.1C39.7569 137.035 41.1 135.692 41.1 134.035V104.995C41.1 104.333 40.5628 103.795 39.9 103.795C39.2373 103.795 38.7 104.333 38.7 104.995Z" fill="#0249FF"/>
<path d="M40.3657 72.9239C38.1979 72.9674 36.3501 72.3377 34.7774 71.1899C33.3298 70.1331 32.3127 68.8402 31.6528 67.3819C31.178 66.3324 31.1368 65.2498 31.4538 64.1573C32.038 62.1422 33.2804 60.4359 35.243 59.0646C35.9476 58.5722 36.7571 58.2191 37.6481 57.9856C38.2834 57.8192 38.9117 57.8147 39.5653 57.9725C40.3542 58.1633 41.1752 58.2708 41.9642 58.4612C43.929 58.9358 45.7292 59.6666 47.2795 60.7442C48.8573 61.8412 49.9364 63.1636 50.1594 64.8591C50.3142 66.0382 50.0017 67.1615 49.3779 68.2115C47.7892 70.8866 45.1095 72.4497 41.4178 72.918C41.0755 72.9615 40.7166 72.9239 40.3657 72.9239ZM41.4963 70.975C44.0373 71.0248 45.9276 69.9985 47.1528 68.1222C47.6172 67.4113 47.9251 66.6556 48.0346 65.8623C48.1097 65.3156 48.2267 64.7416 48.0977 64.2144C47.5828 62.1105 45.9282 60.7215 43.4342 59.9848C42.3632 59.6684 41.2102 59.5247 40.0934 59.3057C39.9999 59.2876 39.8629 59.2618 39.805 59.2985C39.2764 59.628 38.6113 59.5623 38.0173 59.6974C36.7394 59.9884 35.7337 60.5918 34.911 61.3942C33.8538 62.4247 33.1348 63.597 32.6842 64.8708C32.2479 66.1044 32.5678 67.2137 33.566 68.2237C34.5664 69.236 35.8123 69.9636 37.3339 70.4101C38.617 70.7868 39.9403 70.9686 41.4969 70.975H41.4963Z" fill="#0249FF"/>
<path d="M51.6409 70.1762C51.6466 68.9028 52.8082 67.6901 54.2627 67.4675C54.523 67.4276 54.8177 67.4281 55.0711 67.4825C55.954 67.6715 56.7372 68.0088 57.326 68.5791C57.4831 68.731 57.6339 68.8969 57.7314 69.0755C58.4956 70.475 57.4252 72.3427 55.5877 72.8232C54.4806 73.1124 53.5042 72.8989 52.6872 72.2692C51.9516 71.7021 51.6317 70.9854 51.6403 70.1762H51.6409ZM56.4689 70.0121C56.4769 69.5656 56.059 69.231 55.5464 69.2183C55.3257 69.2129 55.1067 69.1766 54.8871 69.1548C54.3023 69.0968 53.5592 69.5044 53.3311 70.0085C53.1636 70.3788 53.4279 70.8775 53.9331 71.1219C54.4708 71.3816 55.0172 71.3907 55.5682 71.1395C56.1381 70.8798 56.4018 70.475 56.4689 70.0121Z" fill="#0249FF"/>
<path d="M53.5822 57.8347C52.0003 57.8206 50.8141 57.1968 50.4214 56.1242C50.1152 55.2883 50.2362 54.4759 50.8439 53.7352C51.4024 53.0547 52.1551 52.8417 53.1654 52.9749C54.5855 53.1622 55.4753 53.9133 56.1117 54.8118C57.1277 56.2457 55.7253 57.9398 53.5816 57.8347H53.5822ZM53.8671 56.2117C53.9331 56.2004 54.1859 56.1809 54.4141 56.1115C54.9507 55.9488 55.0608 55.6931 54.7271 55.3336C54.5224 55.1133 54.2581 54.9229 53.995 54.742C53.5575 54.441 52.4756 54.5285 52.1064 54.8794C51.81 55.1614 51.8261 55.5063 52.1746 55.7861C52.5869 56.117 53.1115 56.2231 53.8671 56.2117Z" fill="#0249FF"/>
<path d="M38.5769 62.4437C38.3986 62.7125 38.304 62.9714 38.0976 63.1482C37.0381 64.0549 36.8454 64.8364 37.487 65.9566C37.6728 66.2807 37.9285 66.579 38.1251 66.8995C38.2885 67.1652 38.4336 67.4408 38.5488 67.7214C38.6663 68.0079 38.5414 68.2727 38.3046 68.4944C38.0534 68.7296 37.6653 68.7392 37.3763 68.5338C37.3207 68.4944 37.268 68.449 37.2296 68.3992C36.2538 67.1158 35.3496 65.8161 35.5222 64.2357C35.6042 63.4828 35.9 62.8032 36.537 62.2311C36.6849 62.0983 36.858 61.98 37.0358 61.8712C37.3276 61.693 37.6888 61.5543 37.9978 61.7546C38.2449 61.9147 38.3728 62.1903 38.5763 62.4437H38.5769Z" fill="#0249FF"/>
<path d="M73.5 26.6667C73.5 32.1895 70.1421 36.6667 66 36.6667C70.1421 36.6667 73.5 41.1438 73.5 46.6667C73.5 41.1438 76.8579 36.6667 81 36.6667C76.8579 36.6667 73.5 32.1895 73.5 26.6667Z" stroke="#0249FF" stroke-width="5" stroke-linecap="round" stroke-linejoin="round"/>
<path d="M82.875 45C82.875 47.3012 81.4759 49.1667 79.75 49.1667C81.4759 49.1667 82.875 51.0322 82.875 53.3333C82.875 51.0322 84.2741 49.1667 86 49.1667C84.2741 49.1667 82.875 47.3012 82.875 45Z" stroke="#0249FF" stroke-width="5" stroke-linecap="round" stroke-linejoin="round"/>
<path d="M193.5 239.667C193.5 245.19 190.142 249.667 186 249.667C190.142 249.667 193.5 254.144 193.5 259.667C193.5 254.144 196.858 249.667 201 249.667C196.858 249.667 193.5 245.19 193.5 239.667Z" stroke="#0249FF" stroke-width="5" stroke-linecap="round" stroke-linejoin="round"/>
<path d="M202.875 258C202.875 260.301 201.476 262.167 199.75 262.167C201.476 262.167 202.875 264.032 202.875 266.333C202.875 264.032 204.274 262.167 206 262.167C204.274 262.167 202.875 260.301 202.875 258Z" stroke="#0249FF" stroke-width="5" stroke-linecap="round" stroke-linejoin="round"/>
<path d="M68.5 216.667C68.5 222.19 65.1421 226.667 61 226.667C65.1421 226.667 68.5 231.144 68.5 236.667C68.5 231.144 71.8579 226.667 76 226.667C71.8579 226.667 68.5 222.19 68.5 216.667Z" stroke="#0249FF" stroke-width="5" stroke-linecap="round" stroke-linejoin="round"/>
<path d="M77.875 235C77.875 237.301 76.4759 239.167 74.75 239.167C76.4759 239.167 77.875 241.032 77.875 243.333C77.875 241.032 79.2741 239.167 81 239.167C79.2741 239.167 77.875 237.301 77.875 235Z" stroke="#0249FF" stroke-width="5" stroke-linecap="round" stroke-linejoin="round"/>
<path d="M198.5 30.6667C198.5 36.1895 195.142 40.6667 191 40.6667C195.142 40.6667 198.5 45.1438 198.5 50.6667C198.5 45.1438 201.858 40.6667 206 40.6667C201.858 40.6667 198.5 36.1895 198.5 30.6667Z" stroke="#0249FF" stroke-width="5" stroke-linecap="round" stroke-linejoin="round"/>
<path d="M207.875 49C207.875 51.3012 206.476 53.1667 204.75 53.1667C206.476 53.1667 207.875 55.0322 207.875 57.3333C207.875 55.0322 209.274 53.1667 211 53.1667C209.274 53.1667 207.875 51.3012 207.875 49Z" stroke="#0249FF" stroke-width="5" stroke-linecap="round" stroke-linejoin="round"/>
<path d="M276.8 233H273V185C273 179.2 268.8 175 263 175C257.2 175 253 179.2 253 185V199C253 200.9 251.9 202 250 202C248 202 247 201 247 198.9V197C247 191 242.9 187.1 237 187.1C230.1 187.1 227 192 227 197V209.5C221 211.1 216 216 216 223C216 224.5 216.3 226.2 217 228.3C217 228.5 217 228.8 217 229C217 234.5 221.4 239 226.9 239C227 239 227 239 227 239H261C261.1 239 261.1 239 261.2 239H276.8C278.8 239 280 237.9 280 236C280 234.1 278.8 233 276.8 233ZM229 197C229 193.1 231.1 189 237 189C241.8 189 245 192.2 245 196.9V198.9C245 202.1 246.9 204 250 204C253 204 255 202 255 199V185C255 180.3 258.3 177 263 177C267.7 177 271 180.3 271 185V191H268V185C268 181.8 266.2 180 263 180C259.9 180 258 181.9 258 185V198C258 202.3 255.5 207 250 207C245.3 207 242 203.7 242 199V197C242 193.8 240.2 192 237 192C234.7 192 232 192.9 232 197V209C232 209 231.3 209 231 209C230.3 209 230 209.1 229 209.2V197ZM271 193V233H268V193H271ZM218 223C218 215.6 224.7 211 231 211C250 211 257.5 224.2 258.8 231H236.8C236.9 230.4 237 229.7 237 229C237 223.5 232.5 219 227 219C223.1 219 219.8 221.2 218.1 224.4C218 223.9 218 223.4 218 223ZM227 237C222.6 237 219 233.4 219 229C219 224.6 222.6 221 227 221C231.4 221 235 224.6 235 229C235 233.4 231.4 237 227 237ZM236.1 233H259H260H261C261 225.3 253 210.6 234 209.1V197C234 194.8 234.8 194 237 194C239.1 194 240 194.9 240 197V199C240 204.8 244.2 209 250 209C256.6 209 260 203.5 260 198V185C260 183 261 182 263 182C265.1 182 266 182.9 266 185V233H261.2C259.2 233 258 234.1 258 236C258 236.4 258.1 236.7 258.1 237H233C234.3 236 235.5 234.6 236.1 233ZM276.8 237H261.2C260.1 237 260 236.5 260 236C260 235.5 260.1 235 261.2 235H276.8C277.9 235 278 235.5 278 236C278 236.5 277.9 237 276.8 237Z" fill="#0249FF"/>
<path d="M213.335 120.143L191.48 102.195V73.0524C191.48 70.5218 189.128 68.468 186.229 68.468H165.225C162.326 68.468 159.974 70.5218 159.974 73.0524V76.3302L142.818 62.247C141.81 61.4172 140.513 61 139.221 61C137.935 61 136.643 61.4126 135.635 62.2332L64.677 120.13C61.1956 122.972 63.4955 128.065 68.2635 128.065H70.7053V201.416C70.7053 203.946 73.0578 206 75.9564 206H201.982C204.881 206 207.233 203.946 207.233 201.416V128.065H209.738C214.495 128.065 216.801 122.986 213.335 120.143ZM180.978 77.6368V99.8665L170.476 91.2433V77.6368H180.978ZM139.211 71.865L196.49 118.896H81.5697L139.211 71.865ZM123.216 196.831H102.212V155.572H123.216V196.831ZM196.731 196.831H128.467V150.987H96.9607V196.831H81.2074V123.481H196.731V196.831ZM180.978 150.987H149.471V178.494H180.978V150.987ZM175.727 173.909H154.722V155.572H175.727V173.909Z" fill="#0249FF"/>
<g clip-path="url(#clip0_7_207)">
<path d="M55.725 169.962C55.5234 169.953 55.3172 169.972 55.125 170C54.3188 170.112 53.625 170.506 53.1375 171.237L53.1 171.312L53.0625 171.35L42.7875 190.662C41.6297 190.231 40.4813 189.978 39.4125 189.95C38.2594 189.922 37.1719 190.1 36.1875 190.512C34.2891 191.305 32.8547 192.856 31.9125 194.825C31.8703 194.886 31.8328 194.947 31.8 195.012C31.7953 195.022 31.8047 195.041 31.8 195.05C31.7859 195.073 31.7719 195.102 31.7625 195.125C31.7484 195.172 31.7344 195.223 31.725 195.275C31.0734 196.902 30.3234 198.364 29.475 199.662C29.4656 199.677 29.4469 199.686 29.4375 199.7C29.3297 199.794 29.2406 199.911 29.175 200.037C29.1703 200.047 29.1797 200.066 29.175 200.075C29.1328 200.136 29.0953 200.197 29.0625 200.262C26.1984 204.364 22.4672 206.834 18.9375 208.363C14.1281 210.444 9.525 210.664 8.5125 210.575C8.02969 210.528 7.56563 210.772 7.33594 211.198C7.11094 211.625 7.15781 212.15 7.4625 212.525C21.1359 229.4 41.25 230 41.25 230C41.4891 230.005 41.7234 229.939 41.925 229.813C41.925 229.813 44.4094 228.238 47.4 224.488C49.6453 221.67 52.2047 217.597 54.4125 211.963C54.4266 211.948 54.4359 211.939 54.45 211.925C54.7266 211.667 54.8672 211.292 54.825 210.913C54.825 210.898 54.825 210.889 54.825 210.875C55.4063 209.305 55.9688 207.655 56.475 205.85C56.4938 205.775 56.5078 205.7 56.5125 205.625C56.5125 205.611 56.5125 205.602 56.5125 205.587C58.1109 201.462 56.3297 196.92 52.5 194.937L59.925 174.35V174.312L59.9625 174.275C60.2063 173.422 59.925 172.602 59.475 171.95C59.0484 171.336 58.425 170.853 57.675 170.525V170.487C57.6516 170.478 57.6234 170.497 57.6 170.487C57.5859 170.483 57.5766 170.455 57.5625 170.45C56.9766 170.173 56.3344 169.986 55.725 169.962ZM55.575 172.475C55.8469 172.433 56.2031 172.433 56.5875 172.625L56.625 172.662H56.6625C57.0516 172.817 57.375 173.08 57.525 173.3C57.675 173.52 57.6328 173.652 57.6375 173.637L50.325 193.925C49.4438 193.527 48.8344 193.245 47.5875 192.687C46.6594 192.27 45.7781 191.867 45 191.525L55.125 172.587C55.1156 172.597 55.3031 172.517 55.575 172.475ZM4.8 179.6C2.16094 179.6 0 181.761 0 184.4C0 187.039 2.16094 189.2 4.8 189.2C7.43906 189.2 9.6 187.039 9.6 184.4C9.6 181.761 7.43906 179.6 4.8 179.6ZM4.8 182C6.14063 182 7.2 183.059 7.2 184.4C7.2 185.741 6.14063 186.8 4.8 186.8C3.45938 186.8 2.4 185.741 2.4 184.4C2.4 183.059 3.45938 182 4.8 182ZM15.6 183.2C14.2734 183.2 13.2 184.273 13.2 185.6C13.2 186.927 14.2734 188 15.6 188C16.9266 188 18 186.927 18 185.6C18 184.273 16.9266 183.2 15.6 183.2ZM13.8 191.6C10.1672 191.6 7.2 194.567 7.2 198.2C7.2 201.833 10.1672 204.8 13.8 204.8C17.4328 204.8 20.4 201.833 20.4 198.2C20.4 194.567 17.4328 191.6 13.8 191.6ZM39.375 192.35C40.2094 192.373 41.1234 192.542 42.15 192.95C42.1734 192.964 42.2016 192.978 42.225 192.987C42.4969 193.414 43.0078 193.625 43.5 193.512C43.6359 193.569 43.6219 193.564 43.7625 193.625C44.5734 193.977 45.5953 194.408 46.6125 194.862C48.1031 195.528 49.0453 195.936 49.9125 196.325C49.9359 196.353 49.9594 196.377 49.9875 196.4C50.2453 196.756 50.6766 196.944 51.1125 196.887C51.1266 196.887 51.1359 196.887 51.15 196.887C54.0188 198.2 55.2844 201.327 54.3 204.35C53.8266 204.336 53.4656 204.359 52.575 204.162C51.9094 204.017 51.2625 203.783 50.775 203.487C50.2875 203.192 50.0063 202.902 49.875 202.512C49.7719 202.175 49.5234 201.903 49.1953 201.767C48.8719 201.627 48.5016 201.641 48.1875 201.8C47.7844 202.002 46.7672 201.927 45.8625 201.462C45.4125 201.233 45.0094 200.909 44.7375 200.637C44.4656 200.366 44.3906 200.108 44.4 200.15C44.3344 199.798 44.1188 199.494 43.8047 199.32C43.4953 199.147 43.1203 199.123 42.7875 199.25C42.7547 199.264 42.3563 199.302 41.8875 199.212C41.4188 199.123 40.875 198.931 40.35 198.687C39.825 198.444 39.3422 198.148 39.0375 197.9C38.7328 197.652 38.7047 197.394 38.7375 197.712C38.6578 197.08 38.1 196.616 37.4625 196.662C36.2578 196.775 35.1281 195.889 34.4625 195.312C35.1656 194.127 36.0375 193.18 37.125 192.725C37.7906 192.448 38.5406 192.327 39.375 192.35ZM13.8 194C16.1344 194 18 195.866 18 198.2C18 200.534 16.1344 202.4 13.8 202.4C11.4656 202.4 9.6 200.534 9.6 198.2C9.6 195.866 11.4656 194 13.8 194ZM33.375 197.562C34.2094 198.162 35.3672 198.786 36.75 198.912C36.9703 199.236 37.2094 199.498 37.5 199.737C38.0203 200.169 38.6625 200.548 39.3375 200.862C40.0125 201.177 40.7203 201.439 41.4375 201.575C41.8078 201.645 42.1875 201.505 42.5625 201.5C42.7406 201.772 42.8203 202.133 43.05 202.362C43.5375 202.85 44.1188 203.262 44.775 203.6C45.75 204.102 46.9219 204.275 48.075 204.125C48.4688 204.716 48.9422 205.212 49.5 205.55C50.3203 206.042 51.2156 206.342 52.05 206.525C52.6359 206.652 53.1703 206.708 53.6625 206.75C53.3297 207.828 52.9688 208.841 52.6125 209.825C52.1813 209.811 51.6516 209.788 51.075 209.675C49.7625 209.422 48.5203 208.841 48 207.837C47.7188 207.312 47.0953 207.073 46.5375 207.275C45.9422 207.486 44.8641 207.397 43.95 206.975C43.0359 206.553 42.3422 205.822 42.1875 205.287C42.0891 204.964 41.8547 204.697 41.5453 204.556C41.2406 204.411 40.8891 204.406 40.575 204.537C40.2844 204.659 39.15 204.627 38.2125 204.2C37.275 203.773 36.6703 203.056 36.6 202.662C36.5391 202.33 36.3422 202.044 36.0563 201.866C35.7703 201.687 35.4234 201.636 35.1 201.725C33.9656 202.03 33.0797 201.627 32.3625 201.087C32.1141 200.905 31.9313 200.703 31.7625 200.525C32.3438 199.602 32.8828 198.622 33.375 197.562ZM30.375 202.512C30.5531 202.677 30.7219 202.836 30.9375 203C31.8234 203.666 33.1875 204.139 34.725 204.05C35.2828 205.095 36.1875 205.897 37.2375 206.375C38.2734 206.848 39.3797 206.998 40.4625 206.862C41.0625 207.842 41.8969 208.672 42.9375 209.15C44.0484 209.661 45.2953 209.792 46.5 209.6C47.6203 211.002 49.2141 211.766 50.625 212.038C51 212.108 51.3703 212.155 51.7125 212.188C49.7156 217.011 47.4797 220.541 45.525 222.988C43.0219 226.123 41.3297 227.309 40.95 227.563C40.5234 227.544 37.3969 227.323 33 226.1C33.3609 225.866 33.75 225.622 34.1625 225.313C36.1641 223.813 38.7844 221.366 41.325 217.588C41.5922 217.198 41.6109 216.692 41.3672 216.289C41.1234 215.881 40.6688 215.656 40.2 215.713C39.8484 215.75 39.5344 215.942 39.3375 216.238C36.9563 219.781 34.5047 222.05 32.7 223.4C30.9844 224.684 29.9906 225.083 29.8875 225.125C27.1875 224.173 24.1969 222.87 21.15 221.038C21.5906 220.892 22.0594 220.7 22.575 220.475C24.8531 219.481 27.9 217.625 31.0125 214.138C31.3875 213.763 31.4719 213.186 31.2234 212.722C30.9703 212.253 30.4453 212.005 29.925 212.113C29.6484 212.159 29.3953 212.309 29.2125 212.525C26.325 215.755 23.6203 217.395 21.6375 218.263C19.6547 219.13 18.525 219.2 18.525 219.2C18.4734 219.209 18.4219 219.223 18.375 219.238C15.8859 217.484 13.4016 215.352 11.0625 212.788C13.3453 212.609 16.2844 212.145 19.9125 210.575C23.4938 209.023 27.3141 206.492 30.375 202.512Z" fill="#0249FF"/>
</g>
<defs>
<clipPath id="clip0_7_207">
<rect width="60" height="60" fill="white" transform="translate(0 170)"/>
</clipPath>
</defs>
</svg>
